<svg width="64" height="64" viewBox="0 0 64 64" fill="none" xmlns="http://www.w3.org/2000/svg">
  <path d="M18 26.5C17 24.8 17.6 22.6 19.3 21.6L36.9 11.4C38.6 10.4 40.8 11 41.8 12.7L43.6 15.9C44.6 17.6 44 19.8 42.3 20.8L24.7 31C23 32 20.8 31.4 19.8 29.7L18 26.5Z" fill="white"/>
  <path d="M22.2 37.5C21.2 35.8 21.8 33.6 23.5 32.6L41.1 22.4C42.8 21.4 45 22 46 23.7L47.8 26.9C48.8 28.6 48.2 30.8 46.5 31.8L28.9 42C27.2 43 25 42.4 24 40.7L22.2 37.5Z" fill="white" fill-opacity="0.92"/>
  <path d="M27 49.4C26.4 48.4 26.8 47.1 27.8 46.5L35 42.3C36 41.7 37.3 42.1 37.9 43.1L38.6 44.4C39.2 45.4 38.8 46.7 37.8 47.3L30.6 51.5C29.6 52.1 28.3 51.7 27.7 50.7L27 49.4Z" fill="white" fill-opacity="0.78"/>
</svg>
