<svg width="64" height="64" viewBox="0 0 64 64" fill="none" xmlns="http://www.w3.org/2000/svg">
  <path d="M43.5 15.5C45.1 20.2 49.1 21.3 52.6 20.1C50.6 23.7 50.8 27.8 54.8 30.1C50.5 31.6 49.1 35.5 49.9 39.6C46.3 37.4 42.2 37.8 39.8 42C38.8 37.3 35.1 35.6 30.8 35.9C34 32.6 34 28.5 31.1 24.9C35.5 25.3 39 23.4 40.4 18.9C41.1 17 42.2 16 43.5 15.5Z" fill="#EC4899"/>
  <path d="M43.3 19.4C44.2 22 46.3 22.7 48.1 22C47.1 24 47.2 26.3 49.4 27.5C47.1 28.4 46.4 30.5 46.8 32.7C44.9 31.5 42.7 31.7 41.4 33.9C40.9 31.4 38.9 30.5 36.6 30.6C38.3 28.9 38.3 26.8 36.8 24.9C39.1 25.1 40.9 24.1 41.6 21.7C42 20.7 42.5 19.9 43.3 19.4Z" fill="#FCE7F3"/>
  <path d="M23.3 23.6C25.5 23.6 27.3 25.4 27.3 27.6V35.2H28.6V25.8C28.6 24.1 30 22.8 31.7 22.8C33.3 22.8 34.7 24.1 34.7 25.8V35.2H35.9V28.4C35.9 26.8 37.2 25.5 38.8 25.5C40.4 25.5 41.7 26.8 41.7 28.4V38C41.7 42.8 37.8 46.7 33 46.7H26.5C23.9 46.7 21.4 45.7 19.6 43.9L15.8 40.1C14.5 38.8 14.5 36.6 15.8 35.3C17.1 34 19.2 34 20.5 35.3L21.2 36V27.6C21.2 25.4 21 23.6 23.3 23.6Z" fill="#FFF7FB"/>
  <path d="M27.3 27.9V35.6M31.7 26V35.6M35.9 28.6V35.6" stroke="#F472B6" stroke-width="1.8" stroke-linecap="round"/>
</svg>
