<svg width="1920" height="1080" viewBox="0 0 1920 1080" fill="none" xmlns="http://www.w3.org/2000/svg">
  <defs>
    <linearGradient id="bgMain" x1="0" y1="0" x2="0" y2="1080" gradientUnits="userSpaceOnUse">
      <stop stop-color="#F05293"/>
      <stop offset="1" stop-color="#FB7185"/>
    </linearGradient>
    <linearGradient id="blobA" x1="0" y1="0" x2="1" y2="1">
      <stop stop-color="#FDF2F8" stop-opacity="0.9"/>
      <stop offset="1" stop-color="#FCE7F3" stop-opacity="0.2"/>
    </linearGradient>
    <linearGradient id="blobB" x1="0" y1="0" x2="1" y2="1">
      <stop stop-color="#FFFFFF" stop-opacity="0.85"/>
      <stop offset="1" stop-color="#FBCFE8" stop-opacity="0.2"/>
    </linearGradient>
    <filter id="blur40" x="-200" y="-200" width="2320" height="1480" filterUnits="userSpaceOnUse" color-interpolation-filters="sRGB">
      <feGaussianBlur stdDeviation="22"/>
    </filter>
  </defs>

  <rect width="1920" height="1080" fill="url(#bgMain)"/>

  <g filter="url(#blur40)" opacity="0.65">
    <ellipse cx="380" cy="220" rx="360" ry="170" fill="url(#blobA)"/>
    <ellipse cx="1530" cy="250" rx="300" ry="150" fill="url(#blobB)"/>
    <ellipse cx="980" cy="860" rx="520" ry="220" fill="url(#blobA)"/>
  </g>

  <g opacity="0.22">
    <path d="M0 812C182 760 344 763 526 808C728 858 889 943 1115 936C1347 929 1581 823 1920 733V1080H0V812Z" fill="#FFFFFF"/>
    <path d="M0 875C203 821 394 850 586 901C810 961 1011 1021 1231 1010C1476 998 1673 909 1920 834V1080H0V875Z" fill="#FFF1F2"/>
  </g>

  <g opacity="0.45">
    <circle cx="258" cy="536" r="10" fill="#FFFFFF"/>
    <circle cx="422" cy="462" r="7" fill="#FFE4E6"/>
    <circle cx="612" cy="558" r="8" fill="#FFFFFF"/>
    <circle cx="1712" cy="412" r="11" fill="#FFE4E6"/>
    <circle cx="1512" cy="512" r="7" fill="#FFFFFF"/>
    <circle cx="1348" cy="604" r="9" fill="#FFE4E6"/>
  </g>
</svg>
