<svg width="1920" height="1080" viewBox="0 0 1920 1080" fill="none" xmlns="http://www.w3.org/2000/svg">
  <defs>
    <linearGradient id="stage" x1="960" y1="0" x2="960" y2="1080" gradientUnits="userSpaceOnUse">
      <stop stop-color="#F0629F"/>
      <stop offset="1" stop-color="#F58CAB"/>
    </linearGradient>
    <linearGradient id="blob1" x1="0" y1="0" x2="1" y2="1">
      <stop stop-color="#FFB6CF"/>
      <stop offset="1" stop-color="#F472B6"/>
    </linearGradient>
    <linearGradient id="blob2" x1="0" y1="0" x2="1" y2="1">
      <stop stop-color="#FDA4AF"/>
      <stop offset="1" stop-color="#EC4899"/>
    </linearGradient>
    <linearGradient id="blob3" x1="0" y1="0" x2="1" y2="1">
      <stop stop-color="#FBCFE8"/>
      <stop offset="1" stop-color="#F472B6"/>
    </linearGradient>
    <filter id="shadowSoft" x="0" y="0" width="1920" height="1080" filterUnits="userSpaceOnUse" color-interpolation-filters="sRGB">
      <feDropShadow dx="0" dy="24" stdDeviation="24" flood-color="#9D174D" flood-opacity="0.22"/>
    </filter>
  </defs>

  <rect width="1920" height="1080" fill="url(#stage)"/>

  <g opacity="0.18">
    <ellipse cx="310" cy="160" rx="240" ry="80" fill="#FFFFFF"/>
    <ellipse cx="1640" cy="210" rx="220" ry="72" fill="#FFFFFF"/>
    <ellipse cx="950" cy="930" rx="420" ry="120" fill="#FFFFFF"/>
  </g>

  <g filter="url(#shadowSoft)">
    <g transform="translate(250 260) rotate(-14 0 0)">
      <rect x="0" y="0" width="260" height="180" rx="52" fill="url(#blob1)"/>
      <rect x="24" y="24" width="212" height="132" rx="40" fill="#FDF2F8" fill-opacity="0.58"/>
      <ellipse cx="130" cy="212" rx="78" ry="16" fill="#9D174D" fill-opacity="0.18"/>
    </g>

    <g transform="translate(780 170) rotate(9 0 0)">
      <rect x="0" y="0" width="360" height="260" rx="84" fill="url(#blob2)"/>
      <rect x="28" y="30" width="304" height="194" rx="62" fill="#FFF1F2" fill-opacity="0.5"/>
      <ellipse cx="180" cy="300" rx="112" ry="22" fill="#9D174D" fill-opacity="0.2"/>
    </g>

    <g transform="translate(1440 300) rotate(-11 0 0)">
      <rect x="0" y="0" width="250" height="170" rx="50" fill="url(#blob3)"/>
      <rect x="22" y="22" width="206" height="126" rx="36" fill="#FDF2F8" fill-opacity="0.56"/>
      <ellipse cx="126" cy="200" rx="72" ry="14" fill="#9D174D" fill-opacity="0.18"/>
    </g>
  </g>

  <g opacity="0.4">
    <circle cx="560" cy="160" r="6" fill="#FFE4E6"/>
    <circle cx="1260" cy="118" r="5" fill="#FFE4E6"/>
    <circle cx="1480" cy="560" r="7" fill="#FFF1F2"/>
    <circle cx="440" cy="720" r="5" fill="#FFF1F2"/>
  </g>
</svg>
